<svg width="304" height="302" viewBox="0 0 304 302" fill="none" xmlns="http://www.w3.org/2000/svg">
<g id="Group 7">
<path id="Vector" d="M57.9548 0.324438C96.1858 -0.347562 134.525 0.232441 172.766 0.234441L220.706 0.224432C230.538 0.221432 240.449 -0.029559 250.268 0.471441C250.444 0.468441 250.621 0.464452 250.797 0.464452C264.376 0.460452 278.627 7.62144 288.043 17.1394C288.961 18.0654 289.844 19.0248 290.69 20.0174C291.536 21.0101 292.343 22.0334 293.113 23.0874C293.882 24.1408 294.61 25.2218 295.298 26.3305C295.985 27.4385 296.63 28.5711 297.233 29.7284C297.835 30.8858 298.392 32.0638 298.906 33.2625C299.42 34.4618 299.887 35.6784 300.309 36.9124C300.731 38.1471 301.106 39.3958 301.434 40.6585C301.761 41.9211 302.041 43.1941 302.273 44.4775C303.748 52.2705 303.101 60.8974 303.102 68.8294L303.083 108.396C303.071 153.988 303.625 199.652 303.057 245.236C302.867 260.408 297.724 273.883 286.683 284.511C285.667 285.503 284.616 286.456 283.531 287.37C282.445 288.285 281.327 289.159 280.179 289.992C279.029 290.826 277.851 291.616 276.645 292.363C275.438 293.111 274.206 293.813 272.948 294.471C271.69 295.129 270.409 295.74 269.107 296.304C267.805 296.869 266.483 297.385 265.143 297.853C263.803 298.321 262.448 298.74 261.078 299.11C259.707 299.48 258.325 299.799 256.931 300.067C246.475 302.184 235.43 301.522 224.808 301.518L185.482 301.497C143.247 301.7 101.013 301.688 58.7787 301.461C42.3947 301.217 27.0178 296.413 15.4162 284.294C8.93955 277.528 3.24335 268.03 1.39285 258.764C-0.601349 248.777 0.14385 237.896 0.13745 227.73L0.119055 186.259L0.11495 98.0964C0.11815 82.9674 -0.182547 67.7675 0.176153 52.6455C0.517653 38.2505 6.05385 24.9974 16.62 15.0914C28.0668 4.35944 42.4458 -0.261562 57.9548 0.324438ZM251.245 283.779C262.956 281.695 273.207 276.016 280.104 266.113C283.735 260.9 286.199 254.332 286.869 248.012C288.022 237.129 287.17 225.314 287.171 214.346L287.158 147.186L287.168 86.0964C287.168 74.2544 288.296 61.0994 286.072 49.4544C284.095 39.1034 277.83 30.1404 269.134 24.2854C264.152 20.9304 258.596 18.5674 252.598 17.9014C240.303 16.5354 227.203 17.4404 214.807 17.4404L144.741 17.4385L81.2787 17.4104C71.7507 17.4044 60.8268 16.5305 51.4208 17.5685C40.6228 19.0005 31.1698 23.3944 24.3998 32.1864C20.4298 37.3414 17.0222 45.3884 16.3573 51.8414C15.1648 63.4134 16.0418 75.9154 16.046 87.5824L16.0814 157.669L16.0414 217.955C16.0369 228.428 15.1158 239.788 16.5754 250.114C16.672 250.768 16.7849 251.42 16.9143 252.068C17.0435 252.717 17.189 253.362 17.3506 254.003C17.5122 254.645 17.6898 255.281 17.8834 255.913C18.0769 256.546 18.2862 257.173 18.5112 257.795C18.7361 258.417 18.9766 259.032 19.2328 259.642C19.4881 260.252 19.7591 260.855 20.0458 261.451C20.3318 262.047 20.6324 262.636 20.9478 263.217C21.2631 263.799 21.5931 264.372 21.9377 264.936C22.2817 265.501 22.6401 266.057 23.0128 266.603C23.3848 267.15 23.7704 267.687 24.1698 268.214C24.5684 268.741 24.9804 269.258 25.4058 269.764C25.8304 270.271 26.2677 270.767 26.7177 271.252C27.1677 271.737 27.6294 272.21 28.1028 272.671C28.5761 273.133 29.0611 273.582 29.5578 274.019C30.0538 274.457 30.5604 274.881 31.0777 275.293C31.5951 275.705 32.1224 276.104 32.6598 276.489C37.8768 280.3 44.1048 282.954 50.5258 283.783C62.8168 285.37 76.1787 284.418 88.5977 284.418L159.674 284.388L217.932 284.384C228.745 284.402 240.562 285.389 251.245 283.779Z" fill="black"/>
<path id="Vector_2" d="M95.7047 52.5903C111.316 51.6143 127.134 53.9503 139.487 64.2933C149.119 72.3573 154.132 83.6284 155.281 95.9754C146.775 95.9504 138 95.5024 129.543 96.3254C129.016 94.3954 128.471 92.4494 127.71 90.5964C125.241 84.5824 120.362 79.5794 114.297 77.1964C106.704 74.2144 96.9327 74.6853 89.5157 78.0173C81.8447 81.4643 76.7837 88.2554 74.0057 96.0024C69.3597 108.959 69.4807 126.114 75.5397 138.607C79.2567 146.27 85.5047 152.57 93.7267 155.214C101.292 157.647 110.461 156.93 117.509 153.242C125.633 148.992 128.777 142.202 131.235 133.869C124.039 133.086 116.796 133.913 109.595 133.93C107.287 133.935 104.852 133.716 103.22 131.891C100.429 128.771 101.672 121.218 102.221 117.361C102.306 116.32 102.57 115.601 102.895 114.611C103.973 113.81 104.351 113.597 105.731 113.46C112.447 112.792 119.823 113.344 126.606 113.341C135.922 113.337 146.017 112.535 155.212 113.754C156.273 114.539 156.385 115.05 156.585 116.31C157.032 119.126 156.776 122.277 156.662 125.109C156.165 137.448 153.298 148.514 145.87 158.538C137.928 169.256 124.688 176.332 111.593 178.114C95.2947 180.332 77.8747 177.339 64.6637 167.13C51.9907 157.335 44.6157 142.695 42.6477 126.95C40.4207 109.14 43.2287 89.0133 54.5297 74.5343C65.1277 60.9563 78.9327 54.7083 95.7047 52.5903Z" fill="black"/>
<path id="Vector_3" d="M244.73 133.982L245.166 133.961C249.034 133.81 251.667 134.703 254.506 137.385C258.471 141.133 265.267 146.943 265.229 152.762C265.212 155.418 263.757 157.334 262.157 159.33C258.371 164.055 253.691 168.295 249.528 172.708L221.721 202.178L185.903 240.112C179.439 246.949 173.132 254.15 166.293 260.594C163.734 263.006 160.018 266.058 156.285 265.727C149.551 265.13 127.624 240.177 122.048 234.163C116.605 228.534 102.93 217.952 103.083 209.943C103.164 205.711 108.387 200.741 111.246 197.899C114.242 194.921 118.128 191.442 122.632 191.62C124.315 191.686 125.906 192.29 127.284 193.243C131.869 196.415 135.819 201.421 139.639 205.483C145.585 211.83 151.566 218.144 157.582 224.426L213.474 164.467C221.722 155.571 230.689 144.381 239.713 136.528C241.334 135.118 242.65 134.501 244.73 133.982Z" fill="black"/>
<path id="Vector_4" d="M196.062 82.3685C188.807 82.4295 170.623 83.7815 164.562 81.2895C163.3 80.7705 162.15 80.0055 161.694 78.6515C160.395 74.7945 160.096 62.9255 162.417 59.6015C163.361 58.2515 164.3 58.0315 165.852 57.7545C171.17 56.8025 177.196 57.3335 182.591 57.3495L211.807 57.3915C219.939 57.4208 228.072 57.4002 236.204 57.3295C240.98 57.2925 245.98 56.9725 250.724 57.3425C252.787 57.5035 255.383 57.8095 257.085 59.0985C258.297 60.0165 258.83 61.8955 258.994 63.3675C259.441 67.4045 260.027 77.0585 257.228 80.0325C253.563 83.9255 231.336 82.4625 225.451 82.3435C224.225 84.5715 224.128 86.2875 224.101 88.7655C224.002 97.7475 224.12 106.738 224.134 115.72C224.141 120.775 224.603 126.323 223.642 131.303C223.228 133.45 222.358 135.136 221.041 136.866C217.207 141.904 200.358 155.424 200.264 160.357C199.141 161.905 197.487 163.359 196.172 164.771C195.694 154.179 195.938 143.512 195.938 132.909L196.062 82.3685Z" fill="black"/>
<path id="Vector_5" d="M200.264 160.357C200.358 155.424 217.207 141.904 221.041 136.866C222.358 135.136 223.228 133.45 223.642 131.303C224.603 126.323 224.141 120.775 224.134 115.72C224.12 106.738 224.002 97.7475 224.101 88.7655C224.128 86.2875 224.225 84.5715 225.451 82.3435C226.024 91.7075 225.675 101.233 225.675 110.617C225.675 117.887 226.097 125.434 225.563 132.673C222.157 138.576 205.762 155.777 200.264 160.357Z" fill="black"/>
</g>
</svg>
